<?xml version="1.0" standalone="no"?>
<svg version="1.0" xmlns="http://www.w3.org/2000/svg" width="1024.000000" height="1024.000000" viewBox="0 0 1024.000000 1024.000000" preserveAspectRatio="xMidYMid meet">
  
  <rect width="100%" height="100%" fill="#ffffff"/>
  
  <g transform="translate(0.000000,1024.000000) scale(0.100000,-0.100000)" fill="#000000" stroke="none">
    <path d="M0 5120 l0 -5120 5120 0 5120 0 0 5120 0 5120 -5120 0 -5120 0 0    -5120z m1515 1620 c446 -50 712 -271 781 -648 10 -54 13 -97 8 -102 -5 -4    -108 -13 -229 -20 -121 -6 -233 -12 -249 -13 -31 -2 -31 -2 -57 97 -18 70 -80    157 -142 200 -108 74 -335 99 -515 56 -95 -23 -127 -38 -177 -82 -57 -49 -78    -100 -73 -173 9 -145 101 -195 571 -309 480 -117 669 -208 799 -384 90 -122    128 -249 128 -433 0 -424 -276 -708 -756 -775 -147 -20 -451 -15 -588 11 -348    64 -593 265 -697 572 -36 105 -61 250 -46 260 16 10 481 52 488 45 4 -4 17    -42 28 -85 52 -190 149 -300 318 -359 61 -20 86 -23 233 -23 148 0 173 3 239    24 246 81 341 323 187 477 -69 68 -132 92 -456 171 -410 100 -548 150 -684    247 -180 129 -276 313 -276 533 0 328 217 582 580 677 162 43 395 57 585 36z    m4620 -100 c20 -50 95 -235 340 -840 48 -118 137 -336 197 -485 61 -148 148    -362 193 -475 46 -113 123 -299 170 -415 48 -115 89 -218 92 -228 5 -16 -11    -17 -278 -15 l-283 3 -107 270 c-59 149 -110 278 -112 288 -5 16 -36 17 -523    15 l-518 -3 -107 -285 -107 -285 -271 -3 c-149 -1 -271 0 -271 3 0 3 46 122    101 263 623 1577 841 2133 870 2215 l13 37 290 -2 290 -3 21 -55z m2029 8 c8
    -29 33 -123 56 -208 23 -85 68 -252 100 -370 32 -118 82 -303 110 -410 29    -107 58 -217 66 -245 73 -268 113 -407 117 -411 3 -3 8 3 11 13 11 39 216 798    351 1303 42 157 82 305 89 330 l12 45 392 3 392 2 0 -1260 0 -1260 -242 2    -243 3 -5 967 -5 968 -39 -158 c-34 -140 -343 -1328 -430 -1652 l-33 -125    -246 -3 -246 -2 -11 42 c-7 24 -25 93 -42 153 -29 109 -84 313 -213 800 -37    138 -106 405 -155 594 -49 189 -91 345 -92 347 -2 1 -3 -433 -3 -964 l0 -967    -242 -3 -243 -2 0 1260 0 1260 390 0 389 0 15 -52z m-4329 -593 c207 -46 352
    -141 420 -274 57 -114 58 -120 65 -721 8 -612 8 -613 74 -779 20 -49 36 -91    36 -95 0 -3 -110 -6 -244 -6 -183 0 -246 3 -254 13 -5 6 -20 46 -32 87 -12 41
    -24 81 -26 89 -3 9 -18 0 -49 -28 -135 -124 -300 -188 -515 -198 -392 -19    -670 210 -670 549 0 152 47 271 146 371 104 105 237 156 584 223 217 42 367
    78 435 104 27 10 28 11 23 89 -6 103 -37 153 -123 196 -58 29 -64 30 -205 30    -138 0 -148 -1 -202 -28 -71 -35 -122 -102 -152 -200 -4 -12 -12 -16 -28 -12    -13 3 -112 21 -221 39 -109 19 -201 36 -203 39 -3 3 5 33 16 67 88 261 270    406 569 455 114 19 456 13 556 -10z"/>
    <path d="M5740 5927 c-66 -184 -119 -326 -231 -627 -21 -58 -39 -108 -39 -113    0 -4 158 -7 350 -7 220 0 350 4 350 10 0 5 -13 43 -30 84 -56 141 -310 825    -310 835 0 5 -4 12 -8 15 -5 3 -41 -86 -82 -197z"/>
    <path d="M3770 5064 c-25 -8 -134 -35 -243 -59 -109 -25 -220 -54 -247 -66    -108 -46 -163 -150 -139 -260 16 -75 91 -151 173 -174 89 -26 205 -17 291 23    84 40 166 117 195 184 35 81 54 357 25 364 -5 1 -30 -5 -55 -12z"/>
  </g>
</svg>